<mxfile host="app.diagrams.net" agent="Mozilla/5.0 (X11; Ubuntu; Linux x86_64; rv:136.0) Gecko/20100101 Firefox/136.0" version="26.1.1">
  <diagram name="Page-1" id="VkWRC4Jgp1jq8Or8jqPU">
    <mxGraphModel dx="1280" dy="454" grid="1" gridSize="10" guides="1" tooltips="1" connect="1" arrows="1" fold="1" page="1" pageScale="1" pageWidth="200" pageHeight="160" math="1" shadow="0">
      <root>
        <mxCell id="0" />
        <mxCell id="1" parent="0" />
        <mxCell id="CxYJ1oR50krxFZu2kWlD-1" value="" style="verticalLabelPosition=bottom;verticalAlign=top;html=1;shape=mxgraph.basic.polygon;polyCoords=[[0.64,0.13],[1,1],[1,1],[0.64,1],[0.51,0.76],[0.36,1],[0,1],[0.38,0.13]];polyline=0;fillColor=#E6E6E6;strokeColor=#000000;rotation=90;" vertex="1" parent="1">
          <mxGeometry x="-258" y="55" width="78.58" height="49.56" as="geometry" />
        </mxCell>
        <mxCell id="CxYJ1oR50krxFZu2kWlD-2" value="" style="verticalLabelPosition=bottom;verticalAlign=top;html=1;shape=mxgraph.basic.polygon;polyCoords=[[0.64,0.13],[1,1],[1,1],[0.64,1],[0.51,0.76],[0.36,1],[0,1],[0.38,0.13]];polyline=0;fillColor=#E6E6E6;strokeColor=#000000;rotation=90;" vertex="1" parent="1">
          <mxGeometry x="-258" y="140" width="78.58" height="49.56" as="geometry" />
        </mxCell>
        <mxCell id="CxYJ1oR50krxFZu2kWlD-5" value="&lt;font style=&quot;font-size: 24px;&quot;&gt;$$+$$&lt;/font&gt;" style="text;html=1;align=center;verticalAlign=middle;whiteSpace=wrap;rounded=0;" vertex="1" parent="1">
          <mxGeometry x="-233.5" y="71.28" width="29" height="17" as="geometry" />
        </mxCell>
        <mxCell id="CxYJ1oR50krxFZu2kWlD-6" value="&lt;font style=&quot;font-size: 24px;&quot;&gt;$$+$$&lt;/font&gt;" style="text;html=1;align=center;verticalAlign=middle;whiteSpace=wrap;rounded=0;" vertex="1" parent="1">
          <mxGeometry x="-233.5" y="156.28" width="29" height="17" as="geometry" />
        </mxCell>
        <mxCell id="CxYJ1oR50krxFZu2kWlD-9" value="" style="endArrow=blockThin;html=1;rounded=0;entryX=0.19;entryY=1.009;entryDx=0;entryDy=0;entryPerimeter=0;endFill=1;" edge="1" parent="1" target="CxYJ1oR50krxFZu2kWlD-1">
          <mxGeometry width="50" height="50" relative="1" as="geometry">
            <mxPoint x="-268" y="55" as="sourcePoint" />
            <mxPoint x="-298" y="70" as="targetPoint" />
          </mxGeometry>
        </mxCell>
        <mxCell id="CxYJ1oR50krxFZu2kWlD-10" value="" style="endArrow=blockThin;html=1;rounded=0;entryX=0.19;entryY=1.009;entryDx=0;entryDy=0;entryPerimeter=0;endFill=1;" edge="1" parent="1">
          <mxGeometry width="50" height="50" relative="1" as="geometry">
            <mxPoint x="-268" y="104" as="sourcePoint" />
            <mxPoint x="-244" y="104" as="targetPoint" />
          </mxGeometry>
        </mxCell>
        <mxCell id="CxYJ1oR50krxFZu2kWlD-11" value="" style="endArrow=blockThin;html=1;rounded=0;entryX=0.19;entryY=1.009;entryDx=0;entryDy=0;entryPerimeter=0;endFill=1;" edge="1" parent="1">
          <mxGeometry width="50" height="50" relative="1" as="geometry">
            <mxPoint x="-268" y="140" as="sourcePoint" />
            <mxPoint x="-244" y="140" as="targetPoint" />
          </mxGeometry>
        </mxCell>
        <mxCell id="CxYJ1oR50krxFZu2kWlD-12" value="" style="endArrow=blockThin;html=1;rounded=0;entryX=0.19;entryY=1.009;entryDx=0;entryDy=0;entryPerimeter=0;endFill=1;" edge="1" parent="1">
          <mxGeometry width="50" height="50" relative="1" as="geometry">
            <mxPoint x="-268" y="189" as="sourcePoint" />
            <mxPoint x="-244" y="189" as="targetPoint" />
          </mxGeometry>
        </mxCell>
        <mxCell id="CxYJ1oR50krxFZu2kWlD-17" value="" style="verticalLabelPosition=bottom;verticalAlign=top;html=1;shape=mxgraph.basic.polygon;polyCoords=[[0.64,0.13],[1,1],[1,1],[0.64,1],[0.51,0.76],[0.36,1],[0,1],[0.38,0.13]];polyline=0;fillColor=#E6E6E6;strokeColor=#000000;rotation=90;" vertex="1" parent="1">
          <mxGeometry x="-153" y="100" width="78.58" height="49.56" as="geometry" />
        </mxCell>
        <mxCell id="CxYJ1oR50krxFZu2kWlD-18" value="&lt;font style=&quot;font-size: 24px;&quot;&gt;$$+$$&lt;/font&gt;" style="text;html=1;align=center;verticalAlign=middle;whiteSpace=wrap;rounded=0;" vertex="1" parent="1">
          <mxGeometry x="-128.5" y="116.28" width="29" height="17" as="geometry" />
        </mxCell>
        <mxCell id="CxYJ1oR50krxFZu2kWlD-19" value="" style="endArrow=blockThin;html=1;rounded=0;exitX=1;exitY=0.5;exitDx=0;exitDy=0;entryX=0.187;entryY=1.01;entryDx=0;entryDy=0;entryPerimeter=0;endFill=1;" edge="1" parent="1" source="CxYJ1oR50krxFZu2kWlD-30" target="CxYJ1oR50krxFZu2kWlD-17">
          <mxGeometry width="50" height="50" relative="1" as="geometry">
            <mxPoint x="-165.3728000000001" y="80.01574000000005" as="sourcePoint" />
            <mxPoint x="-103" y="40" as="targetPoint" />
            <Array as="points">
              <mxPoint x="-153" y="80" />
              <mxPoint x="-153" y="100" />
            </Array>
          </mxGeometry>
        </mxCell>
        <mxCell id="CxYJ1oR50krxFZu2kWlD-20" value="" style="endArrow=blockThin;html=1;rounded=0;exitX=1;exitY=0.5;exitDx=0;exitDy=0;entryX=0.187;entryY=1.01;entryDx=0;entryDy=0;entryPerimeter=0;endFill=1;" edge="1" parent="1" source="CxYJ1oR50krxFZu2kWlD-39">
          <mxGeometry width="50" height="50" relative="1" as="geometry">
            <mxPoint x="-165" y="166" as="sourcePoint" />
            <mxPoint x="-139" y="146" as="targetPoint" />
            <Array as="points">
              <mxPoint x="-153" y="166" />
              <mxPoint x="-153" y="146" />
            </Array>
          </mxGeometry>
        </mxCell>
        <mxCell id="CxYJ1oR50krxFZu2kWlD-25" value="" style="verticalLabelPosition=bottom;verticalAlign=top;html=1;shape=mxgraph.basic.polygon;polyCoords=[[0.64,0.13],[1,1],[1,1],[0.64,1],[0.51,0.76],[0.36,1],[0,1],[0.38,0.13]];polyline=0;fillColor=#E6E6E6;strokeColor=#000000;rotation=90;" vertex="1" parent="1">
          <mxGeometry x="-48" y="183.28" width="78.58" height="49.56" as="geometry" />
        </mxCell>
        <mxCell id="CxYJ1oR50krxFZu2kWlD-26" value="&lt;font style=&quot;font-size: 24px;&quot;&gt;$$+$$&lt;/font&gt;" style="text;html=1;align=center;verticalAlign=middle;whiteSpace=wrap;rounded=0;" vertex="1" parent="1">
          <mxGeometry x="-23.5" y="199.56" width="29" height="17" as="geometry" />
        </mxCell>
        <mxCell id="CxYJ1oR50krxFZu2kWlD-27" value="" style="endArrow=blockThin;html=1;rounded=0;entryX=0.187;entryY=1.01;entryDx=0;entryDy=0;entryPerimeter=0;endFill=1;exitX=1;exitY=0.5;exitDx=0;exitDy=0;" edge="1" parent="1" source="CxYJ1oR50krxFZu2kWlD-61" target="CxYJ1oR50krxFZu2kWlD-25">
          <mxGeometry width="50" height="50" relative="1" as="geometry">
            <mxPoint x="-50" y="130" as="sourcePoint" />
            <mxPoint x="2" y="85" as="targetPoint" />
            <Array as="points">
              <mxPoint x="-48" y="125" />
              <mxPoint x="-48" y="183" />
            </Array>
          </mxGeometry>
        </mxCell>
        <mxCell id="CxYJ1oR50krxFZu2kWlD-29" value="" style="endArrow=blockThin;html=1;rounded=0;entryX=0.19;entryY=1.009;entryDx=0;entryDy=0;entryPerimeter=0;endFill=1;" edge="1" parent="1">
          <mxGeometry width="50" height="50" relative="1" as="geometry">
            <mxPoint x="10" y="209.56" as="sourcePoint" />
            <mxPoint x="34" y="209.56" as="targetPoint" />
          </mxGeometry>
        </mxCell>
        <mxCell id="CxYJ1oR50krxFZu2kWlD-30" value="" style="rounded=0;whiteSpace=wrap;html=1;" vertex="1" parent="1">
          <mxGeometry x="-185.00000000000009" y="59.78" width="20" height="40" as="geometry" />
        </mxCell>
        <mxCell id="CxYJ1oR50krxFZu2kWlD-31" value="" style="triangle;whiteSpace=wrap;html=1;rotation=-90;" vertex="1" parent="1">
          <mxGeometry x="-180.00000000000009" y="89.78" width="10" height="10" as="geometry" />
        </mxCell>
        <mxCell id="CxYJ1oR50krxFZu2kWlD-32" value="" style="endArrow=blockThin;html=1;rounded=0;exitX=0.498;exitY=0.136;exitDx=0;exitDy=0;exitPerimeter=0;endFill=1;entryX=0;entryY=0.5;entryDx=0;entryDy=0;" edge="1" parent="1" source="CxYJ1oR50krxFZu2kWlD-1" target="CxYJ1oR50krxFZu2kWlD-30">
          <mxGeometry width="50" height="50" relative="1" as="geometry">
            <mxPoint x="-180" y="130" as="sourcePoint" />
            <mxPoint x="-190" y="80" as="targetPoint" />
          </mxGeometry>
        </mxCell>
        <mxCell id="CxYJ1oR50krxFZu2kWlD-39" value="" style="rounded=0;whiteSpace=wrap;html=1;" vertex="1" parent="1">
          <mxGeometry x="-185.00000000000009" y="145.78" width="20" height="40" as="geometry" />
        </mxCell>
        <mxCell id="CxYJ1oR50krxFZu2kWlD-40" value="" style="triangle;whiteSpace=wrap;html=1;rotation=-90;" vertex="1" parent="1">
          <mxGeometry x="-180.00000000000009" y="175.78" width="10" height="10" as="geometry" />
        </mxCell>
        <mxCell id="CxYJ1oR50krxFZu2kWlD-41" value="" style="endArrow=blockThin;html=1;rounded=0;exitX=0.498;exitY=0.136;exitDx=0;exitDy=0;exitPerimeter=0;endFill=1;entryX=0;entryY=0.5;entryDx=0;entryDy=0;" edge="1" parent="1" target="CxYJ1oR50krxFZu2kWlD-39">
          <mxGeometry width="50" height="50" relative="1" as="geometry">
            <mxPoint x="-201" y="166" as="sourcePoint" />
            <mxPoint x="-190" y="166" as="targetPoint" />
          </mxGeometry>
        </mxCell>
        <mxCell id="CxYJ1oR50krxFZu2kWlD-42" value="" style="verticalLabelPosition=bottom;verticalAlign=top;html=1;shape=mxgraph.basic.polygon;polyCoords=[[0.64,0.13],[1,1],[1,1],[0.64,1],[0.51,0.76],[0.36,1],[0,1],[0.38,0.13]];polyline=0;fillColor=#E6E6E6;strokeColor=#000000;rotation=90;" vertex="1" parent="1">
          <mxGeometry x="-258" y="225" width="78.58" height="49.56" as="geometry" />
        </mxCell>
        <mxCell id="CxYJ1oR50krxFZu2kWlD-43" value="" style="verticalLabelPosition=bottom;verticalAlign=top;html=1;shape=mxgraph.basic.polygon;polyCoords=[[0.64,0.13],[1,1],[1,1],[0.64,1],[0.51,0.76],[0.36,1],[0,1],[0.38,0.13]];polyline=0;fillColor=#E6E6E6;strokeColor=#000000;rotation=90;" vertex="1" parent="1">
          <mxGeometry x="-258" y="310" width="78.58" height="49.56" as="geometry" />
        </mxCell>
        <mxCell id="CxYJ1oR50krxFZu2kWlD-44" value="&lt;font style=&quot;font-size: 24px;&quot;&gt;$$+$$&lt;/font&gt;" style="text;html=1;align=center;verticalAlign=middle;whiteSpace=wrap;rounded=0;" vertex="1" parent="1">
          <mxGeometry x="-233.5" y="241.28" width="29" height="17" as="geometry" />
        </mxCell>
        <mxCell id="CxYJ1oR50krxFZu2kWlD-45" value="&lt;font style=&quot;font-size: 24px;&quot;&gt;$$+$$&lt;/font&gt;" style="text;html=1;align=center;verticalAlign=middle;whiteSpace=wrap;rounded=0;" vertex="1" parent="1">
          <mxGeometry x="-233.5" y="326.28" width="29" height="17" as="geometry" />
        </mxCell>
        <mxCell id="CxYJ1oR50krxFZu2kWlD-46" value="" style="endArrow=blockThin;html=1;rounded=0;entryX=0.19;entryY=1.009;entryDx=0;entryDy=0;entryPerimeter=0;endFill=1;" edge="1" parent="1" target="CxYJ1oR50krxFZu2kWlD-42">
          <mxGeometry width="50" height="50" relative="1" as="geometry">
            <mxPoint x="-268" y="225" as="sourcePoint" />
            <mxPoint x="-298" y="240" as="targetPoint" />
          </mxGeometry>
        </mxCell>
        <mxCell id="CxYJ1oR50krxFZu2kWlD-47" value="" style="endArrow=blockThin;html=1;rounded=0;entryX=0.19;entryY=1.009;entryDx=0;entryDy=0;entryPerimeter=0;endFill=1;" edge="1" parent="1">
          <mxGeometry width="50" height="50" relative="1" as="geometry">
            <mxPoint x="-268" y="274" as="sourcePoint" />
            <mxPoint x="-244" y="274" as="targetPoint" />
          </mxGeometry>
        </mxCell>
        <mxCell id="CxYJ1oR50krxFZu2kWlD-48" value="" style="endArrow=blockThin;html=1;rounded=0;entryX=0.19;entryY=1.009;entryDx=0;entryDy=0;entryPerimeter=0;endFill=1;" edge="1" parent="1">
          <mxGeometry width="50" height="50" relative="1" as="geometry">
            <mxPoint x="-268" y="310" as="sourcePoint" />
            <mxPoint x="-244" y="310" as="targetPoint" />
          </mxGeometry>
        </mxCell>
        <mxCell id="CxYJ1oR50krxFZu2kWlD-49" value="" style="endArrow=blockThin;html=1;rounded=0;entryX=0.19;entryY=1.009;entryDx=0;entryDy=0;entryPerimeter=0;endFill=1;" edge="1" parent="1">
          <mxGeometry width="50" height="50" relative="1" as="geometry">
            <mxPoint x="-268" y="359" as="sourcePoint" />
            <mxPoint x="-244" y="359" as="targetPoint" />
          </mxGeometry>
        </mxCell>
        <mxCell id="CxYJ1oR50krxFZu2kWlD-50" value="" style="verticalLabelPosition=bottom;verticalAlign=top;html=1;shape=mxgraph.basic.polygon;polyCoords=[[0.64,0.13],[1,1],[1,1],[0.64,1],[0.51,0.76],[0.36,1],[0,1],[0.38,0.13]];polyline=0;fillColor=#E6E6E6;strokeColor=#000000;rotation=90;" vertex="1" parent="1">
          <mxGeometry x="-153" y="270" width="78.58" height="49.56" as="geometry" />
        </mxCell>
        <mxCell id="CxYJ1oR50krxFZu2kWlD-51" value="&lt;font style=&quot;font-size: 24px;&quot;&gt;$$+$$&lt;/font&gt;" style="text;html=1;align=center;verticalAlign=middle;whiteSpace=wrap;rounded=0;" vertex="1" parent="1">
          <mxGeometry x="-128.5" y="286.28" width="29" height="17" as="geometry" />
        </mxCell>
        <mxCell id="CxYJ1oR50krxFZu2kWlD-52" value="" style="endArrow=blockThin;html=1;rounded=0;exitX=1;exitY=0.5;exitDx=0;exitDy=0;entryX=0.187;entryY=1.01;entryDx=0;entryDy=0;entryPerimeter=0;endFill=1;" edge="1" parent="1" source="CxYJ1oR50krxFZu2kWlD-55" target="CxYJ1oR50krxFZu2kWlD-50">
          <mxGeometry width="50" height="50" relative="1" as="geometry">
            <mxPoint x="-165.3728000000001" y="250.01574000000005" as="sourcePoint" />
            <mxPoint x="-103" y="210" as="targetPoint" />
            <Array as="points">
              <mxPoint x="-153" y="250" />
              <mxPoint x="-153" y="270" />
            </Array>
          </mxGeometry>
        </mxCell>
        <mxCell id="CxYJ1oR50krxFZu2kWlD-53" value="" style="endArrow=blockThin;html=1;rounded=0;exitX=1;exitY=0.5;exitDx=0;exitDy=0;entryX=0.187;entryY=1.01;entryDx=0;entryDy=0;entryPerimeter=0;endFill=1;" edge="1" parent="1" source="CxYJ1oR50krxFZu2kWlD-58">
          <mxGeometry width="50" height="50" relative="1" as="geometry">
            <mxPoint x="-165" y="336" as="sourcePoint" />
            <mxPoint x="-139" y="316" as="targetPoint" />
            <Array as="points">
              <mxPoint x="-153" y="336" />
              <mxPoint x="-153" y="316" />
            </Array>
          </mxGeometry>
        </mxCell>
        <mxCell id="CxYJ1oR50krxFZu2kWlD-54" value="" style="endArrow=blockThin;html=1;rounded=0;entryX=0.828;entryY=0.996;entryDx=0;entryDy=0;entryPerimeter=0;endFill=1;exitX=1;exitY=0.5;exitDx=0;exitDy=0;" edge="1" parent="1" source="CxYJ1oR50krxFZu2kWlD-64" target="CxYJ1oR50krxFZu2kWlD-25">
          <mxGeometry width="50" height="50" relative="1" as="geometry">
            <mxPoint x="-60" y="295" as="sourcePoint" />
            <mxPoint x="-34" y="353" as="targetPoint" />
            <Array as="points">
              <mxPoint x="-48" y="295" />
              <mxPoint x="-48" y="234" />
            </Array>
          </mxGeometry>
        </mxCell>
        <mxCell id="CxYJ1oR50krxFZu2kWlD-55" value="" style="rounded=0;whiteSpace=wrap;html=1;" vertex="1" parent="1">
          <mxGeometry x="-185.00000000000009" y="229.78" width="20" height="40" as="geometry" />
        </mxCell>
        <mxCell id="CxYJ1oR50krxFZu2kWlD-56" value="" style="triangle;whiteSpace=wrap;html=1;rotation=-90;" vertex="1" parent="1">
          <mxGeometry x="-180.00000000000009" y="259.78" width="10" height="10" as="geometry" />
        </mxCell>
        <mxCell id="CxYJ1oR50krxFZu2kWlD-57" value="" style="endArrow=blockThin;html=1;rounded=0;exitX=0.498;exitY=0.136;exitDx=0;exitDy=0;exitPerimeter=0;endFill=1;entryX=0;entryY=0.5;entryDx=0;entryDy=0;" edge="1" parent="1" source="CxYJ1oR50krxFZu2kWlD-42" target="CxYJ1oR50krxFZu2kWlD-55">
          <mxGeometry width="50" height="50" relative="1" as="geometry">
            <mxPoint x="-180" y="300" as="sourcePoint" />
            <mxPoint x="-190" y="250" as="targetPoint" />
          </mxGeometry>
        </mxCell>
        <mxCell id="CxYJ1oR50krxFZu2kWlD-58" value="" style="rounded=0;whiteSpace=wrap;html=1;" vertex="1" parent="1">
          <mxGeometry x="-185.00000000000009" y="315.78" width="20" height="40" as="geometry" />
        </mxCell>
        <mxCell id="CxYJ1oR50krxFZu2kWlD-59" value="" style="triangle;whiteSpace=wrap;html=1;rotation=-90;" vertex="1" parent="1">
          <mxGeometry x="-180.00000000000009" y="345.78" width="10" height="10" as="geometry" />
        </mxCell>
        <mxCell id="CxYJ1oR50krxFZu2kWlD-60" value="" style="endArrow=blockThin;html=1;rounded=0;exitX=0.498;exitY=0.136;exitDx=0;exitDy=0;exitPerimeter=0;endFill=1;entryX=0;entryY=0.5;entryDx=0;entryDy=0;" edge="1" parent="1" target="CxYJ1oR50krxFZu2kWlD-58">
          <mxGeometry width="50" height="50" relative="1" as="geometry">
            <mxPoint x="-201" y="336" as="sourcePoint" />
            <mxPoint x="-190" y="336" as="targetPoint" />
          </mxGeometry>
        </mxCell>
        <mxCell id="CxYJ1oR50krxFZu2kWlD-61" value="" style="rounded=0;whiteSpace=wrap;html=1;" vertex="1" parent="1">
          <mxGeometry x="-79.00000000000009" y="104.56" width="20" height="40" as="geometry" />
        </mxCell>
        <mxCell id="CxYJ1oR50krxFZu2kWlD-62" value="" style="triangle;whiteSpace=wrap;html=1;rotation=-90;" vertex="1" parent="1">
          <mxGeometry x="-74.00000000000009" y="134.56" width="10" height="10" as="geometry" />
        </mxCell>
        <mxCell id="CxYJ1oR50krxFZu2kWlD-63" value="" style="endArrow=blockThin;html=1;rounded=0;exitX=0.498;exitY=0.136;exitDx=0;exitDy=0;exitPerimeter=0;endFill=1;entryX=0;entryY=0.5;entryDx=0;entryDy=0;" edge="1" parent="1" target="CxYJ1oR50krxFZu2kWlD-61">
          <mxGeometry width="50" height="50" relative="1" as="geometry">
            <mxPoint x="-95" y="124.78" as="sourcePoint" />
            <mxPoint x="-84" y="124.78" as="targetPoint" />
          </mxGeometry>
        </mxCell>
        <mxCell id="CxYJ1oR50krxFZu2kWlD-64" value="" style="rounded=0;whiteSpace=wrap;html=1;" vertex="1" parent="1">
          <mxGeometry x="-79.00000000000009" y="274.78" width="20" height="40" as="geometry" />
        </mxCell>
        <mxCell id="CxYJ1oR50krxFZu2kWlD-65" value="" style="triangle;whiteSpace=wrap;html=1;rotation=-90;" vertex="1" parent="1">
          <mxGeometry x="-74.00000000000009" y="304.78" width="10" height="10" as="geometry" />
        </mxCell>
        <mxCell id="CxYJ1oR50krxFZu2kWlD-66" value="" style="endArrow=blockThin;html=1;rounded=0;exitX=0.498;exitY=0.136;exitDx=0;exitDy=0;exitPerimeter=0;endFill=1;entryX=0;entryY=0.5;entryDx=0;entryDy=0;" edge="1" parent="1" target="CxYJ1oR50krxFZu2kWlD-64">
          <mxGeometry width="50" height="50" relative="1" as="geometry">
            <mxPoint x="-95" y="295" as="sourcePoint" />
            <mxPoint x="-84" y="295" as="targetPoint" />
          </mxGeometry>
        </mxCell>
      </root>
    </mxGraphModel>
  </diagram>
</mxfile>
